HIERARCHY
ROOT joint_Root
{
	OFFSET 0.0 0.0 0.0
	CHANNELS 6 Xposition Yposition Zposition Zrotation Xrotation Yrotation 
	JOINT Hips
	{
		OFFSET 4.5925 91.4895 -427.239
		CHANNELS 6 Xposition Yposition Zposition Zrotation Xrotation Yrotation 
		JOINT Spine
		{
			OFFSET 15.7357 0.0 0.0
			CHANNELS 6 Xposition Yposition Zposition Zrotation Xrotation Yrotation 
			JOINT Chest
			{
				OFFSET 8.98455 -0.406207 0.0
				CHANNELS 6 Xposition Yposition Zposition Zrotation Xrotation Yrotation 
				JOINT Neck
				{
					OFFSET 16.3773 0.0 0.0
					CHANNELS 6 Xposition Yposition Zposition Zrotation Xrotation Yrotation 
					JOINT Head
					{
						OFFSET 6.45672 0.0 0.0
						CHANNELS 6 Xposition Yposition Zposition Zrotation Xrotation Yrotation 
						End Site
						{
							OFFSET 0.0 0.0 0.0
						}
					}
				}
				JOINT Shoulder_L
				{
					OFFSET 12.9942 -0.242716 4.98039
					CHANNELS 6 Xposition Yposition Zposition Zrotation Xrotation Yrotation 
					JOINT UpperArm_L
					{
						OFFSET 5.34809 0.0 0.0
						CHANNELS 6 Xposition Yposition Zposition Zrotation Xrotation Yrotation 
						JOINT LowerArm_L
						{
							OFFSET 24.3286 1.87007e-05 0.0
							CHANNELS 6 Xposition Yposition Zposition Zrotation Xrotation Yrotation 
							JOINT Hand_L
							{
								OFFSET 22.2916 0.0 0.0
								CHANNELS 6 Xposition Yposition Zposition Zrotation Xrotation Yrotation 
								End Site
								{
									OFFSET 0.0 0.0 0.0
								}
							}
						}
					}
				}
				JOINT Shoulder_R
				{
					OFFSET 12.9945 -0.242716 -4.98039
					CHANNELS 6 Xposition Yposition Zposition Zrotation Xrotation Yrotation 
					JOINT UpperArm_R
					{
						OFFSET -5.34813 0.0 0.0
						CHANNELS 6 Xposition Yposition Zposition Zrotation Xrotation Yrotation 
						JOINT LowerArm_R
						{
							OFFSET -24.3289 0.000322201 0.0
							CHANNELS 6 Xposition Yposition Zposition Zrotation Xrotation Yrotation 
							JOINT Hand_R
							{
								OFFSET -22.2915 -0.000108084 0.0
								CHANNELS 6 Xposition Yposition Zposition Zrotation Xrotation Yrotation 
								End Site
								{
									OFFSET 0.0 0.0 0.0
								}
							}
						}
					}
				}
			}
		}
		JOINT UpperLeg_L
		{
			OFFSET -2.19248 -6.46944 0.0
			CHANNELS 6 Xposition Yposition Zposition Zrotation Xrotation Yrotation 
			JOINT LowerLeg_L
			{
				OFFSET 39.0811 0.0 -1.23785e-05
				CHANNELS 6 Xposition Yposition Zposition Zrotation Xrotation Yrotation 
				JOINT Foot_L
				{
					OFFSET 40.9854 0.0 -1.26872e-05
					CHANNELS 6 Xposition Yposition Zposition Zrotation Xrotation Yrotation 
					JOINT Toes_L
					{
						OFFSET 11.7543 0.0 0.0
						CHANNELS 6 Xposition Yposition Zposition Zrotation Xrotation Yrotation 
						End Site
						{
							OFFSET 0.0 0.0 0.0
						}
					}
				}
			}
		}
		JOINT UpperLeg_R
		{
			OFFSET -2.19251 6.46944 0.0
			CHANNELS 6 Xposition Yposition Zposition Zrotation Xrotation Yrotation 
			JOINT LowerLeg_R
			{
				OFFSET -39.0811 -0.00228153 -0.0401928
				CHANNELS 6 Xposition Yposition Zposition Zrotation Xrotation Yrotation 
				JOINT Foot_R
				{
					OFFSET -40.9854 0.0 0.0
					CHANNELS 6 Xposition Yposition Zposition Zrotation Xrotation Yrotation 
					JOINT Toes_R
					{
						OFFSET -11.7543 0.0 0.0
						CHANNELS 6 Xposition Yposition Zposition Zrotation Xrotation Yrotation 
						End Site
						{
							OFFSET 0.0 0.0 0.0
						}
					}
				}
			}
		}
	}
}
MOTION
Frames:	8
Frame Time:	0.0333333
0.000000 0.000000 0.000000 0.000000 0.000000 -0.000000 1.706260 89.350800 -457.590000 93.959500 -6.344160 -10.784000 15.735700 0.000005 -0.000001 127.771000 83.962700 -128.276000 8.984550 -0.406207 -0.000000 1.827160 7.417500 -1.128870 16.377300 -0.000001 -0.000001 -4.384020 -1.959770 3.222430 6.456720 -0.000001 -0.000000 -9.682110 -3.902760 4.912310 12.994200 -0.242716 4.980390 -87.731300 -5.993190 -69.222300 5.348090 -0.000007 -0.000001 -69.554200 44.468200 20.089100 24.328600 0.000019 0.000005 23.340900 -1.424520 -93.301300 22.291600 -0.000001 0.000005 -0.468382 5.481760 -5.817640 12.994500 -0.242716 -4.980390 89.795500 1.163940 -80.041900 -5.348130 -0.000001 -0.000004 -65.780900 31.841500 -29.166200 -24.328900 0.000322 -0.000009 -4.149140 1.802170 -113.438000 -22.291500 -0.000108 -0.000004 21.160400 5.588410 -10.659100 -2.192480 -6.469440 -0.000000 171.871000 -0.614640 -48.194200 39.081100 -0.000007 -0.000012 -0.114600 -0.011315 95.644000 40.985400 -0.000006 -0.000013 8.555720 -6.738500 -58.905000 11.754300 -0.000000 0.000003 -0.007495 -0.083865 -19.991400 -2.192510 6.469440 -0.000001 171.408000 16.825300 177.811000 -39.081100 -0.002282 -0.040193 0.074852 -0.101118 35.287100 -40.985400 0.000008 0.000006 7.259120 8.676760 -61.530300 -11.754300 -0.000006 -0.000006 -0.194381 -0.635688 -43.777700
0.000000 0.000000 0.000000 0.000000 0.000000 -0.000000 1.480770 92.101600 -450.765000 92.944700 -5.348260 -10.698900 15.735700 0.000005 -0.000001 131.768000 83.689600 -132.550000 8.984550 -0.406207 -0.000000 1.724890 8.443300 -1.692680 16.377300 -0.000001 -0.000001 -5.034700 -2.070770 2.619200 6.456720 -0.000001 -0.000000 -10.940400 -4.794450 3.497370 12.994200 -0.242716 4.980390 -87.121400 -7.283990 -68.366900 5.348090 -0.000007 -0.000001 -69.044100 42.304900 23.067800 24.328600 0.000019 0.000005 19.257500 -2.640020 -97.513100 22.291600 -0.000001 0.000005 0.882236 5.457600 -4.913550 12.994500 -0.242716 -4.980390 90.077300 -0.508688 -81.348400 -5.348130 -0.000001 -0.000004 -64.682000 34.175700 -28.926200 -24.328900 0.000322 -0.000009 -3.463020 1.468730 -112.958000 -22.291500 -0.000108 -0.000004 18.997600 5.567120 -9.539380 -2.192480 -6.469440 -0.000000 173.274000 -0.684215 -45.339100 39.081100 -0.000007 -0.000012 -0.027680 0.005765 78.248500 40.985400 -0.000006 -0.000013 8.163520 -8.839070 -62.488100 11.754300 -0.000000 0.000003 -0.006878 -0.078618 -19.777200 -2.192510 6.469440 -0.000001 169.439000 22.427400 -178.290000 -39.081100 -0.002282 -0.040193 0.116862 -0.186448 31.345100 -40.985400 0.000008 0.000006 4.880070 15.874600 -44.972300 -11.754300 -0.000006 -0.000006 -0.155441 -0.565370 -40.518400
0.000000 0.000000 0.000000 0.000000 0.000000 -0.000000 0.858764 93.523900 -444.037000 92.049500 -3.699240 -10.309300 15.735700 0.000005 -0.000001 132.109000 83.522000 -133.174000 8.984550 -0.406207 -0.000000 1.950580 8.736250 -2.280390 16.377300 -0.000001 -0.000001 -5.656660 -2.589630 2.054410 6.456720 -0.000001 -0.000000 -12.149100 -5.473130 1.898880 12.994200 -0.242716 4.980390 -86.521800 -8.827040 -68.391600 5.348090 -0.000007 -0.000001 -68.780900 38.476400 25.238500 24.328600 0.000019 0.000005 18.010100 -3.711390 -101.260000 22.291600 -0.000001 0.000005 1.514520 5.446670 -4.521700 12.994500 -0.242716 -4.980390 90.242800 -1.831210 -82.443600 -5.348130 -0.000001 -0.000004 -63.561800 37.142500 -27.234800 -24.328900 0.000322 -0.000009 -4.303050 1.588660 -110.222000 -22.291500 -0.000108 -0.000004 18.250100 5.557090 -9.047230 -2.192480 -6.469440 -0.000000 174.626000 -1.861480 -40.810300 39.081100 -0.000007 -0.000012 0.016140 -0.009636 59.149200 40.985400 -0.000006 -0.000013 7.037830 -5.722290 -66.182500 11.754300 -0.000000 0.000003 -0.006872 -0.078573 -19.775300 -2.192510 6.469440 -0.000001 169.465000 22.032000 -175.609000 -39.081100 -0.002282 -0.040193 0.144581 -0.234764 31.039700 -40.985400 0.000008 0.000006 0.872608 14.055100 -36.699200 -11.754300 -0.000006 -0.000006 -0.018678 -0.159854 -23.101700
0.000000 0.000000 0.000000 0.000000 0.000000 -0.000000 0.048167 93.445200 -437.265000 91.189700 -2.400730 -9.575410 15.735700 0.000005 -0.000001 131.692000 83.316300 -132.989000 8.984550 -0.406207 -0.000000 2.345570 8.945700 -2.779630 16.377300 -0.000001 -0.000001 -6.599640 -2.856090 1.053680 6.456720 -0.000001 -0.000000 -12.225600 -6.496750 0.504031 12.994200 -0.242716 4.980390 -86.106800 -10.060200 -68.714800 5.348090 -0.000007 -0.000001 -68.039900 34.195100 26.141400 24.328600 0.000019 0.000005 17.350800 -4.670090 -104.607000 22.291600 -0.000001 0.000005 1.212270 5.439790 -4.277670 12.994500 -0.242716 -4.980390 90.327600 -2.655840 -82.965400 -5.348130 -0.000001 -0.000004 -63.794600 40.105200 -23.725000 -24.328900 0.000322 -0.000009 -3.778110 1.069530 -105.773000 -22.291500 -0.000108 -0.000004 17.153500 5.549000 -8.658770 -2.192480 -6.469440 -0.000000 175.628000 -4.372860 -35.591700 39.081100 -0.000007 -0.000012 -0.002583 0.002933 41.387300 40.985400 -0.000006 -0.000013 2.866010 2.147670 -68.984200 11.754300 -0.000000 0.000003 -0.006624 -0.076407 -19.687000 -2.192510 6.469440 -0.000001 171.776000 17.041000 -175.060000 -39.081100 -0.002282 -0.040193 0.164837 -0.210428 37.514700 -40.985400 0.000008 0.000006 2.117430 8.518230 -38.480300 -11.754300 -0.000006 -0.000006 -0.020628 -0.170742 -23.550200
0.000000 0.000000 0.000000 0.000000 0.000000 -0.000000 -0.737102 92.196000 -430.231000 89.467500 -0.792678 -7.618730 15.735700 0.000005 -0.000001 126.253000 82.928000 -127.339000 8.984550 -0.406207 -0.000000 3.754380 8.391170 -2.448600 16.377300 -0.000001 -0.000001 -7.038380 -2.959210 0.236290 6.456720 -0.000001 -0.000000 -13.392800 -7.151890 -0.871303 12.994200 -0.242716 4.980390 -86.151800 -9.970340 -68.768700 5.348090 -0.000007 -0.000001 -66.513000 29.019200 24.962000 24.328600 0.000019 0.000005 14.945100 -4.828820 -107.505000 22.291600 -0.000001 0.000005 0.036710 5.426130 -3.805120 12.994500 -0.242716 -4.980390 90.286700 -2.440090 -83.295700 -5.348130 -0.000001 -0.000004 -64.754200 42.475200 -19.406500 -24.328900 0.000322 -0.000009 -2.761620 0.480307 -99.857900 -22.291500 -0.000108 -0.000004 16.896100 5.549470 -8.680240 -2.192480 -6.469440 -0.000000 177.143000 -7.795180 -30.708700 39.081100 -0.000007 -0.000012 -0.054524 0.090161 31.163300 40.985400 -0.000006 -0.000013 -1.739730 9.261080 -71.130300 11.754300 -0.000000 0.000003 -0.008147 -0.089237 -20.210700 -2.192510 6.469440 -0.000001 175.725000 11.899300 -175.797000 -39.081100 -0.002282 -0.040193 0.192797 -0.162734 49.352600 -40.985400 0.000008 0.000006 0.986895 5.175240 -37.097600 -11.754300 -0.000006 -0.000006 -0.020607 -0.170626 -23.545400
0.000000 0.000000 0.000000 0.000000 0.000000 -0.000000 -1.100750 89.918600 -423.482000 89.620600 1.169390 -5.905680 15.735700 0.000005 -0.000001 116.863000 82.590900 -118.231000 8.984550 -0.406207 -0.000000 5.564800 6.706260 -3.062770 16.377300 -0.000001 -0.000001 -6.881860 -3.322790 -0.154567 6.456720 -0.000001 -0.000000 -15.482800 -7.720880 -2.119820 12.994200 -0.242716 4.980390 -86.871300 -8.102840 -68.804500 5.348090 -0.000007 -0.000001 -64.429800 23.116300 21.521200 24.328600 0.000019 0.000005 12.023000 -4.524690 -110.328000 22.291600 -0.000001 0.000005 -0.564745 5.419200 -3.572000 12.994500 -0.242716 -4.980390 90.122500 -0.949125 -82.635600 -5.348130 -0.000001 -0.000004 -65.320700 43.917100 -15.328700 -24.328900 0.000322 -0.000009 -2.308020 0.124711 -93.052100 -22.291500 -0.000108 -0.000004 16.638800 5.536660 -8.089010 -2.192480 -6.469440 -0.000000 175.140000 -9.874330 -31.432900 39.081100 -0.000007 -0.000012 0.331087 -0.465201 35.440200 40.985400 -0.000006 -0.000013 5.643430 5.243100 -69.069500 11.754300 -0.000000 0.000003 -0.010902 -0.110269 -21.070700 -2.192510 6.469440 -0.000001 176.580000 10.466400 179.011000 -39.081100 -0.002282 -0.040193 0.303034 -0.117732 68.567000 -40.985400 0.000008 0.000006 -1.875650 5.541920 -33.523900 -11.754300 -0.000006 -0.000006 -0.020565 -0.170397 -23.535900
0.000000 0.000000 0.000000 0.000000 0.000000 -0.000000 -0.970504 86.496100 -417.385000 91.575800 3.146790 -5.702230 15.735700 0.000005 -0.000001 106.734000 82.871300 -108.803000 8.984550 -0.406207 -0.000000 5.977650 4.126480 -4.350520 16.377300 -0.000001 -0.000001 -5.979930 -4.302210 -0.332969 6.456720 -0.000001 -0.000000 -15.911000 -7.702050 -3.515090 12.994200 -0.242716 4.980390 -88.338400 -4.405210 -69.314100 5.348090 -0.000007 -0.000001 -62.185400 17.876100 16.986400 24.328600 0.000019 0.000005 8.912210 -3.987270 -113.918000 22.291600 -0.000001 0.000005 1.020440 5.451800 -4.699460 12.994500 -0.242716 -4.980390 89.748100 1.646740 -81.310300 -5.348130 -0.000001 -0.000004 -65.882800 43.884900 -10.245900 -24.328900 0.000322 -0.000009 -1.147070 -0.091521 -85.381300 -22.291500 -0.000108 -0.000004 15.492000 5.526900 -7.661290 -2.192480 -6.469440 -0.000000 173.839000 -7.974240 -34.854400 39.081100 -0.000007 -0.000012 -0.264041 0.235700 48.246500 40.985400 -0.000006 -0.000013 5.451180 1.344660 -69.964400 11.754300 -0.000000 0.000003 -0.000004 -0.000057 -16.579800 -2.192510 6.469440 -0.000001 174.302000 11.607200 169.251000 -39.081100 -0.002282 -0.040193 0.469012 0.010502 91.302300 -40.985400 0.000008 0.000006 -1.944570 2.710230 -32.172200 -11.754300 -0.000006 -0.000006 -0.021244 -0.174082 -23.687800
0.000000 0.000000 0.000000 0.000000 0.000000 -0.000000 -0.848437 83.288800 -411.536000 92.686800 5.437990 -4.263330 15.735700 0.000005 -0.000001 95.646800 82.683400 -98.057300 8.984550 -0.406207 -0.000000 6.833170 1.454650 -4.902810 16.377300 -0.000001 -0.000001 -5.615760 -5.407840 -0.701211 6.456720 -0.000001 -0.000000 -14.132500 -8.128280 -3.788300 12.994200 -0.242716 4.980390 -90.197600 0.566401 -70.779000 5.348090 -0.000007 -0.000001 -60.801700 14.023300 9.330540 24.328600 0.000019 0.000005 5.301940 -2.746680 -117.311000 22.291600 -0.000001 0.000005 3.281260 5.483810 -5.892420 12.994500 -0.242716 -4.980390 89.079200 5.302940 -80.137300 -5.348130 -0.000001 -0.000004 -67.765000 39.817700 -2.775160 -24.328900 0.000322 -0.000009 3.423060 0.848418 -76.179800 -22.291500 -0.000108 -0.000004 15.909400 5.584420 -10.393800 -2.192480 -6.469440 -0.000000 174.113000 -1.638110 -34.094800 39.081100 -0.000007 -0.000012 -0.554823 0.336262 58.782400 40.985400 -0.000006 -0.000013 3.069660 -3.199540 -79.103100 11.754300 -0.000000 0.000003 -0.000236 -0.002131 -16.657600 -2.192510 6.469440 -0.000001 173.124000 12.142500 159.288000 -39.081100 -0.002282 -0.040193 0.514232 0.194073 110.808000 -40.985400 0.000008 0.000006 1.105880 -0.482438 -31.698100 -11.754300 -0.000006 -0.000006 -0.023553 -0.186227 -24.189000
